<?xml version="1.0" encoding="UTF-8" standalone="no"?>
<!-- Generator: Adobe Illustrator 12.0.1, SVG Export Plug-In . SVG Version: 6.00 Build 51448)  -->
<svg
   xmlns:dc="http://purl.org/dc/elements/1.1/"
   xmlns:cc="http://web.resource.org/cc/"
   xmlns:rdf="http://www.w3.org/1999/02/22-rdf-syntax-ns#"
   xmlns:svg="http://www.w3.org/2000/svg"
   xmlns="http://www.w3.org/2000/svg"
   xmlns:sodipodi="http://sodipodi.sourceforge.net/DTD/sodipodi-0.dtd"
   xmlns:inkscape="http://www.inkscape.org/namespaces/inkscape"
   version="1.1"
   id="Icon"
   width="76"
   height="76"
   viewBox="0 0 76 76"
   overflow="visible"
   enable-background="new 0 0 76 76"
   xml:space="preserve"
   sodipodi:version="0.32"
   inkscape:version="0.44.1"
   sodipodi:docname="penguintv_olpc_icon.svg"
   sodipodi:docbase="/home/owen/penguintv/share"><metadata
   id="metadata20"><rdf:RDF><cc:Work
       rdf:about=""><dc:format>image/svg+xml</dc:format><dc:type
         rdf:resource="http://purl.org/dc/dcmitype/StillImage" /></cc:Work></rdf:RDF></metadata><defs
   id="defs18" /><sodipodi:namedview
   inkscape:cy="43.297076"
   inkscape:cx="43.659906"
   inkscape:zoom="9.8238822"
   inkscape:window-height="996"
   inkscape:window-width="1394"
   inkscape:pageshadow="2"
   inkscape:pageopacity="0.0"
   guidetolerance="10.0"
   gridtolerance="10.0"
   objecttolerance="10.0"
   borderopacity="1.0"
   bordercolor="#666666"
   pagecolor="#ffffff"
   id="base"
   inkscape:window-x="6"
   inkscape:window-y="26"
   inkscape:current-layer="layer2" />








<g
   inkscape:groupmode="layer"
   id="layer1"
   inkscape:label="penguin" /><g
   inkscape:groupmode="layer"
   id="layer2"
   inkscape:label="icon"><path
     style="fill:none;fill-opacity:0.75;fill-rule:evenodd;stroke:black;stroke-width:3.5;stroke-linecap:round;stroke-linejoin:miter;stroke-opacity:1;stroke-miterlimit:4;stroke-dasharray:none"
     d="M 34.261692,19.425021 C 32.318277,19.425021 28.28749,20.504697 27.639684,23.8157 C 26.832267,27.942494 27.063858,30.293751 26.560009,31.66134 C 26.056161,33.028928 21.521525,38.715217 21.017677,42.674026 C 20.513828,46.632835 21.017677,57.069695 24.904507,57.645522 C 28.791338,58.221349 39.084241,61.604331 41.675462,57.861457 C 44.266682,54.118583 46.354054,47.424597 45.418335,43.897658 C 44.482617,40.370719 39.732046,34.396517 39.012263,31.949253 C 38.292479,29.501989 41.079891,26.561767 39.300176,23.311852 C 37.644674,20.288761 35.863211,19.568978 34.261692,19.425021 z "
     id="path2943"
     sodipodi:nodetypes="cssssssssc" /><path
     style="fill:none;fill-opacity:0.75;fill-rule:evenodd;stroke:black;stroke-width:3.5;stroke-linecap:round;stroke-linejoin:miter;stroke-miterlimit:4;stroke-dasharray:none;stroke-opacity:1"
     d="M 45.634271,47.849233 C 46.569989,47.849233 46.929881,47.921211 47.217794,48.497038 C 47.505707,49.072865 49.218787,48.735326 49.737036,49.864626 C 50.298575,51.088258 49.995904,53.751457 49.952971,54.399262 C 49.909087,55.061417 51.176603,55.047067 50.312863,55.766851 C 49.449123,56.486634 42.467223,57.998179 42.17931,57.926201"
     id="path2945"
     sodipodi:nodetypes="cssssc" /><path
     style="fill:none;fill-opacity:0.75;fill-rule:evenodd;stroke:black;stroke-width:3.5;stroke-linecap:round;stroke-linejoin:miter;stroke-opacity:1;stroke-miterlimit:4;stroke-dasharray:none"
     d="M 40.525306,26.402683 C 42.397712,26.182707 56.23684,26.314713 57.107143,27.062838 C 57.488909,27.7165 56.801851,37.785991 55.351347,38.643239 C 53.730154,38.992986 46.713946,38.019427 42.395245,37.707521"
     id="path2947"
     sodipodi:nodetypes="cccc" /><path
     style="fill:none;fill-opacity:0.75;fill-rule:evenodd;stroke:black;stroke-width:3.5;stroke-linecap:round;stroke-linejoin:miter;stroke-opacity:1;stroke-miterlimit:4;stroke-dasharray:none"
     d="M 45.349974,25.426919 C 45.349974,25.426919 45.875425,22.244175 48.938041,22.349935 C 51.706924,22.445552 52.171951,25.307662 52.171951,25.307662"
     id="path2949"
     sodipodi:nodetypes="csc" /><path
     style="fill:none;fill-opacity:0.75;fill-rule:evenodd;stroke:black;stroke-width:3.5;stroke-linecap:round;stroke-linejoin:miter;stroke-opacity:1;stroke-miterlimit:4;stroke-dasharray:none"
     d="M 45.806543,21.675933 C 45.806543,21.675933 44.032041,18.703119 42.880388,18.559162"
     id="path2951"
     sodipodi:nodetypes="cc" /><path
     style="fill:none;fill-opacity:0.75;fill-rule:evenodd;stroke:black;stroke-width:3.5;stroke-linecap:round;stroke-linejoin:miter;stroke-opacity:1;stroke-miterlimit:4;stroke-dasharray:none"
     d="M 50.970899,21.6919 C 52.050574,20.82816 53.087207,19.507231 54.094904,18.740168"
     id="path2953"
     sodipodi:nodetypes="cc" /><path
     style="fill:none;fill-opacity:0.75;fill-rule:evenodd;stroke:black;stroke-width:3.5;stroke-linecap:round;stroke-linejoin:miter;stroke-opacity:1;stroke-miterlimit:4;stroke-dasharray:none"
     d="M 46.641967,38.283347 C 47.001859,40.226763 47.145816,41.306438 47.217794,41.738308"
     id="path2955" /><path
     style="fill:none;fill-opacity:0.75;fill-rule:evenodd;stroke:black;stroke-width:3.5;stroke-linecap:round;stroke-linejoin:miter;stroke-opacity:1;stroke-miterlimit:4;stroke-dasharray:none"
     d="M 52.976062,39.075109 C 53.263975,40.730611 52.1843,43.917242 52.040343,44.277133"
     id="path2957"
     sodipodi:nodetypes="cc" /><path
     style="fill:none;fill-opacity:0.75;fill-rule:evenodd;stroke:black;stroke-width:3.5;stroke-linecap:round;stroke-linejoin:miter;stroke-opacity:1;stroke-miterlimit:4;stroke-dasharray:none"
     d="M 54.415629,39.147088 C 54.271672,39.650936 53.623867,42.170178 53.263975,42.458091"
     id="path2959" /></g></svg>