<?xml version="1.0" encoding="UTF-8" standalone="no"?>
<!-- Created with Inkscape (http://www.inkscape.org/) -->
<!DOCTYPE svg PUBLIC "-//W3C//DTD SVG 1.1//EN" "http://www.w3.org/Graphics/SVG/1.1/DTD/svg11.dtd" [
	<!ENTITY ns_svg "http://www.w3.org/2000/svg">
	<!ENTITY ns_xlink "http://www.w3.org/1999/xlink">
	<!ENTITY fill_color "#133c6d">
	<!ENTITY stroke_color "#d7e4f6">
]> 
<svg
   xmlns:dc="http://purl.org/dc/elements/1.1/"
   xmlns:cc="http://web.resource.org/cc/"
   xmlns:rdf="http://www.w3.org/1999/02/22-rdf-syntax-ns#"
   xmlns:svg="http://www.w3.org/2000/svg"
   xmlns="http://www.w3.org/2000/svg"
   xmlns:sodipodi="http://sodipodi.sourceforge.net/DTD/sodipodi-0.dtd"
   xmlns:inkscape="http://www.inkscape.org/namespaces/inkscape"
   version="1.0"
   width="50"
   height="50"
   viewBox="-13.5 -13.5 67.938 69.182"
   id="Layer_1"
   xml:space="preserve"
   sodipodi:version="0.32"
   inkscape:version="0.44"
   sodipodi:docname="activity-penguintv.svg"
   sodipodi:docbase="/home/owen/penguintv/activity"><metadata
   id="metadata2909"><rdf:RDF><cc:Work
       rdf:about=""><dc:format>image/svg+xml</dc:format><dc:type
         rdf:resource="http://purl.org/dc/dcmitype/StillImage" /></cc:Work></rdf:RDF></metadata><sodipodi:namedview
   inkscape:cy="23.968851"
   inkscape:cx="60.622397"
   inkscape:zoom="3.4732669"
   inkscape:window-height="628"
   inkscape:window-width="919"
   inkscape:pageshadow="2"
   inkscape:pageopacity="0.0"
   guidetolerance="10.0"
   gridtolerance="10.0"
   objecttolerance="10.0"
   borderopacity="1.0"
   bordercolor="#666666"
   pagecolor="#ffffff"
   id="base"
   inkscape:window-x="9"
   inkscape:window-y="50"
   inkscape:current-layer="Layer_1"
   width="50px"
   height="50px" />
<defs
   id="defs22">
</defs>



<g
   id="g1956"
   transform="matrix(1.017764,0,0,1.017764,-1.478589,3.077959e-2)"><path
    fill="&fill_color;"
   stroke="&stroke_color;"
     nodetypes="cssssc"
     id="path2945"
     d="M 33.046298,34.093705 C 34.518589,34.093705 35.084855,34.206958 35.537867,35.112984 C 35.990879,36.019009 38.686298,35.487914 39.501728,37.264793 C 40.385273,39.190097 39.90904,43.380465 39.841488,44.399744 C 39.772439,45.441601 41.766792,45.419022 40.407754,46.551555 C 39.048716,47.684086 28.063157,50.062402 27.610145,49.949149"
     style="stroke-width:4;stroke-linecap:round;stroke-linejoin:miter;stroke-miterlimit:4;stroke-dasharray:none;stroke-opacity:1" /><path
     fill="&fill_color;"
   stroke="&stroke_color;"
     nodetypes="cccc"
     id="path2947"
     d="M 25.758878,18.933128 C 20.955528,11.072547 21.06565,5.0771454 22.816652,1.1457113 C 25.762759,0.79959355 47.537714,1.0072963 48.907078,2.1844216 C 49.507762,3.2129156 48.426721,19.056595 46.144449,20.405418 C 43.593609,20.955722 32.554069,19.423891 25.758878,18.933128 z "
     style="stroke-width:4;stroke-linecap:round;stroke-linejoin:miter;stroke-miterlimit:4;stroke-dasharray:none;stroke-opacity:1"
     sodipodi:nodetypes="ccccc" /><path
     fill="&fill_color;"
   stroke="&stroke_color;"
     nodetypes="cssssssssc"
     id="path2943"
     d="M 15.152296,-10.629916 C 12.09446,-10.629916 5.752283,-8.9311173 4.733003,-3.7214726 C 3.4625857,2.7717653 3.8269788,6.4713131 3.0342056,8.6231241 C 2.241434,10.774933 -4.8935164,19.721934 -5.6862879,25.950859 C -6.4790611,32.179783 -5.6862879,48.601494 0.42938245,49.507519 C 6.5450546,50.413545 22.740259,55.736444 26.817374,49.847279 C 30.894487,43.958114 34.178829,33.425569 32.706537,27.876163 C 31.234247,22.326757 23.759537,12.926744 22.627006,9.0761362 C 21.494473,5.2255278 25.880282,0.59928247 23.080018,-4.5142442 C 20.475195,-9.2708784 17.67218,-10.403409 15.152296,-10.629916 z "
     style="stroke-width:4;stroke-linecap:round;stroke-linejoin:miter;stroke-miterlimit:4;stroke-dasharray:none;stroke-opacity:1" /><path
     fill="&fill_color;"
   stroke="&stroke_color;"
     nodetypes="csc"
     id="path2949"
     d="M 30.407949,-0.38958898 C 30.407949,-0.38958898 31.234711,-5.3974266 36.053535,-5.2310202 C 40.41019,-5.0805732 41.141879,-0.577232 41.141879,-0.577232"
     style="stroke-width:4;stroke-linecap:round;stroke-linejoin:miter;stroke-miterlimit:4;stroke-dasharray:none;stroke-opacity:1" /><path
     fill="&fill_color;"
   stroke="&stroke_color;"
     nodetypes="cc"
     id="path2951"
     d="M 31.12633,-6.2915179 C 31.12633,-6.2915179 28.334268,-10.969045 26.522218,-11.195551"
     style="stroke-width:4;stroke-linecap:round;stroke-linejoin:miter;stroke-miterlimit:4;stroke-dasharray:none;stroke-opacity:1" /><path
     fill="&fill_color;"
   stroke="&stroke_color;"
     nodetypes="cc"
     id="path2953"
     d="M 39.252103,-6.2663949 C 40.950901,-7.6254328 42.581974,-9.7038274 44.167519,-10.91075"
     style="stroke-width:4;stroke-linecap:round;stroke-linejoin:miter;stroke-miterlimit:4;stroke-dasharray:none;stroke-opacity:1" /><path
     fill="&fill_color;"
   stroke="&stroke_color;"
     id="path2955"
     d="M 32.440815,19.839152 C 33.007081,22.896989 33.233588,24.595786 33.34684,25.275305"
     style="stroke-width:4;stroke-linecap:round;stroke-linejoin:miter;stroke-miterlimit:4;stroke-dasharray:none;stroke-opacity:1" /><path
     fill="&fill_color;"
   stroke="&stroke_color;"
     nodetypes="cc"
     id="path2957"
     d="M 42.407095,21.084937 C 42.860107,23.68976 41.16131,28.703714 40.934803,29.269979"
     style="stroke-width:4;stroke-linecap:round;stroke-linejoin:miter;stroke-miterlimit:4;stroke-dasharray:none;stroke-opacity:1" /><path
     fill="&fill_color;"
   stroke="&stroke_color;"
     id="path2959"
     d="M 44.672159,21.198191 C 44.445652,21.990963 43.426373,25.954824 42.860107,26.407836"
     style="stroke-width:4;stroke-linecap:round;stroke-linejoin:miter;stroke-miterlimit:4;stroke-dasharray:none;stroke-opacity:1" /></g></svg>
