<?xml version="1.0" encoding="UTF-8" standalone="no"?>
<!DOCTYPE svg PUBLIC "-//W3C//DTD SVG 1.1//EN" "http://www.w3.org/Graphics/SVG/1.1/DTD/svg11.dtd" [
  <!ENTITY fill_color "#FFFFFF">
  <!ENTITY stroke_color "#000000">
]>
<svg
   xmlns:svg="http://www.w3.org/2000/svg"
   xmlns="http://www.w3.org/2000/svg"
   version="1.0"
   width="55"
   height="55"
   viewBox="0 0 55 55"
   id="svg3784"
   xml:space="preserve"><defs
     id="defs3804" /><g
     transform="translate(0.3752163,-0.3745354)"
     id="g3935"><path
       d="M 10.907049,7.6351049 C 21.796248,7.7692369 34.210948,7.6425318 43.857039,7.6425318 C 45.926706,7.6425318 47.40413,8.914949 47.40413,10.993386 C 47.40413,19.70241 47.384013,34.601455 47.384013,43.15141 C 47.384013,45.406342 45.782072,48.113966 42.803002,48.113966 C 33.850894,48.113966 20.352184,48.100231 11.21899,48.100231 C 8.3424159,48.100231 6.8454373,45.167522 6.8454373,43.257843 C 6.8454373,34.630047 6.8802645,20.915942 6.8802645,12.134705 C 6.8802645,10.167614 8.6921594,7.6351049 10.907049,7.6351049 z "
       
style="fill:&fill_color;;fill-opacity:1;fill-rule:nonzero;stroke:&stroke_color;;stroke-width:3.44130754;stroke-linecap:butt;stroke-linejoin:miter;marker:none;marker-start:none;marker-mid:none;marker-end:none;stroke-miterlimit:4;stroke-dasharray:none;stroke-dashoffset:0;stroke-opacity:1;visibility:visible;display:inline;overflow:visible"
       id="path3457" /><path
       d="M 10.85914 31.774426 A 2.9673231 2.9673231 0 1 1  4.9244936,31.774426 A 2.9673231 2.9673231 0 1 1  10.85914 31.774426 z"
       transform="matrix(0.901153,0,0,0.901153,9.9256558,9.4124914)"
       
style="fill:&stroke_color;;fill-opacity:1;fill-rule:nonzero;stroke:&stroke_color;;stroke-width:3;stroke-linecap:butt;stroke-linejoin:miter;stroke-miterlimit:4;stroke-dasharray:none;stroke-dashoffset:0;stroke-opacity:1"
       id="path3459" /><path
       d="M 13.339287,26.269077 C 24.688314,25.984608 29.55404,31.376338 29.326465,41.744211"
       
style="fill:none;fill-opacity:1;fill-rule:nonzero;stroke:&stroke_color;;stroke-width:5.58714867;stroke-linecap:butt;stroke-linejoin:miter;marker:none;marker-start:none;marker-mid:none;marker-end:none;stroke-miterlimit:4;stroke-dasharray:none;stroke-dashoffset:0;stroke-opacity:1;visibility:visible;display:inline;overflow:visible"
       id="path3461" /><path
       d="M 13.31645,15.86553 C 28.931152,15.637956 39.658312,22.2235 39.316949,41.695351"
       
style="fill:none;fill-opacity:1;fill-rule:evenodd;stroke:&stroke_color;;stroke-width:5.58714867;stroke-linecap:butt;stroke-linejoin:miter;marker:none;marker-start:none;marker-mid:none;marker-end:none;stroke-miterlimit:4;stroke-dasharray:none;stroke-dashoffset:0;stroke-opacity:1;visibility:visible;display:inline;overflow:visible"
       id="path3463" /></g></svg>
